<?xml version="1.0" encoding="UTF-8"?>
<svg width="225px" height="225px" viewBox="0 0 225 225" version="1.1" xmlns="http://www.w3.org/2000/svg" xmlns:xlink="http://www.w3.org/1999/xlink">
    <title>Group 4</title>
    <defs>
        <linearGradient x1="86.9483717%" y1="14.3404179%" x2="7.87853738%" y2="79.9250846%" id="linearGradient-1">
            <stop stop-color="#2251FF" stop-opacity="0.25972465" offset="0%"></stop>
            <stop stop-color="#00D3FD" stop-opacity="0.111970061" offset="100%"></stop>
        </linearGradient>
    </defs>
    <g id="Page-1" stroke="none" stroke-width="1" fill="none" fill-rule="evenodd">
        <g id="1" transform="translate(-603.000000, -349.000000)">
            <g id="Group-4" transform="translate(603.000000, 349.000000)">
                <circle id="Oval" fill="url(#linearGradient-1)" opacity="0.88797433" cx="112.5" cy="112.5" r="112.5"></circle>
                <g id="Group-13" transform="translate(57.058056, 59.765625)">
                    <path d="M86.4525137,74.1735532 L86.4525137,31.3072075 C86.4525223,30.2026428 87.3479489,29.3072161 88.4525137,29.3072161 C88.6077909,29.3072161 88.7625399,29.3252992 88.9136337,29.3611001 C92.3905613,30.1849401 94.8941868,29.9496762 96.4245102,28.6553085 C96.7822795,28.2051827 93.6394465,21.003147 86.9960114,7.04920137 C86.6643795,6.35264853 85.9616947,5.90893584 85.190225,5.90893584 L12.9898862,5.90893584 C12.2423926,5.90893584 11.5572876,6.32577194 11.2136953,6.98961766 L0.503625033,27.6822676 C0.182296167,28.3031053 0.208442922,29.0466628 0.572589508,29.6433947 C3.31628576,34.1395267 6.32603754,35.6893768 9.60184483,34.2929449 C9.3231066,35.0222004 9.31922172,58.6706232 9.59019018,105.238213 C9.59660436,106.338215 10.4901362,107.226563 11.5901563,107.226563 L68.9410401,107.226563 C70.019201,107.226578 70.9033175,106.371971 70.9399037,105.294431 C71.43055,90.8438471 75.6614219,83.8145957 83.6325193,84.2066765 C88.5540057,80.8017891 89.7197542,77.9574496 87.1297649,75.6736578 L87.1297594,75.673664 C86.6991854,75.2939939 86.4525137,74.7476119 86.4525137,74.1735532 Z" id="Path-11" fill="#A3DFFD" fill-rule="nonzero"></path>
                    <g id="Group-3" transform="translate(62.277324, 72.579281)" fill="#A3DFFD" fill-rule="nonzero">
                        <path d="M14.7399681,0.000469017496 C10.019913,0.00248291946 5.58621913,2.26050195 2.81358562,6.07403685 C0.0406423012,9.88798421 -0.736653407,14.796374 0.72282849,19.2776693 C2.18272346,23.7594803 5.70229199,27.272956 10.1915439,28.7290161 C14.680486,30.1846638 19.5961301,29.4069023 23.4149683,26.6369544 L30.7594678,33.9704612 C31.3439834,34.554102 32.1963341,34.7820748 32.9950062,34.5685997 C33.7937196,34.3547225 34.4173117,33.7320122 34.6315921,32.9344633 C34.8453872,32.1369453 34.6170706,31.285891 34.0325571,30.7022709 L26.6880575,23.3687641 C28.8332367,20.424782 29.8087031,16.7912825 29.426716,13.1706722 C29.0443055,9.55006195 27.3315184,6.1997111 24.6186768,3.76686061 C21.9062484,1.33401012 18.3862668,-0.00800687935 14.7405051,0 L14.7399681,0.000469017496 Z" id="Path"></path>
                        <path d="M14.7399681,24.8301036 C12.055835,24.8301036 9.48178522,23.7655639 7.58382883,21.8704483 C5.68587243,19.9753326 4.61973706,17.4051354 4.61973706,14.7250197 C4.61973706,12.044904 5.68587243,9.4747069 7.58382883,7.57959123 C9.48178522,5.68447556 12.055835,4.61993591 14.7399681,4.61993591 C17.4241013,4.61993591 19.9981511,5.68447556 21.8961075,7.57959123 C23.7940639,9.4747069 24.8601992,12.044904 24.8601992,14.7250197 C24.8569721,17.4038981 23.7900364,19.9725485 21.8924931,21.8668393 C19.9953628,23.7615425 17.4229653,24.8269071 14.7399681,24.8301036 L14.7399681,24.8301036 Z" id="Path"></path>
                    </g>
                    <g id="Group-22" transform="translate(6.223194, 0.000000)" stroke="#2251FF" stroke-width="3">
                        <polyline id="Path-6" stroke-linecap="round" stroke-linejoin="round" points="8.63651737 34.2929449 8.63651737 102.621125 60.6645893 102.621125"></polyline>
                        <line x1="85.3936111" y1="34.2929449" x2="85.4275403" y2="70.2749751" id="Path-7" stroke-linecap="round" stroke-linejoin="round"></line>
                        <circle id="Oval" cx="74" cy="86" r="12.5"></circle>
                        <line x1="8.63651737" y1="82.1542418" x2="53.597074" y2="82.1542418" id="Path-8" stroke-linecap="round" stroke-linejoin="round"></line>
                        <path d="M48.732477,0 L13.967018,0 L0,29.3139824 C9.38794912,34.405121 17.5100286,34.405121 24.3662385,29.3139824 C24.4455673,29.4560424 36.9120049,41.242637 48.7882971,29.3139824" id="Path-9" stroke-linecap="round" stroke-linejoin="round"></path>
                        <path d="M97.5027737,0 L62.7373146,0 L48.7702966,29.3139824 C58.1582458,34.405121 66.2803253,34.405121 73.1365351,29.3139824 C73.2158639,29.4560424 85.6823016,41.242637 97.5585938,29.3139824" id="Path-9-Copy" stroke-linecap="round" stroke-linejoin="round" transform="translate(73.164445, 17.323658) scale(-1, 1) translate(-73.164445, -17.323658) "></path>
                        <ellipse id="Oval" cx="48.6301318" cy="55.2538283" rx="8.16618492" ry="8.14861988"></ellipse>
                        <path d="M61.0935953,68.9435776 C58.0358502,65.5219244 53.5850524,63.3674404 48.6301318,63.3674404 C39.4091097,63.3674404 31.9339943,70.8289723 31.9339943,80.0332384" id="Oval-Copy-2" stroke-linecap="round" stroke-linejoin="round"></path>
                        <line x1="82.4403698" y1="97.4093849" x2="91.21875" y2="105.734375" id="Path-3"></line>
                    </g>
                </g>
            </g>
        </g>
    </g>
</svg>